<svg width="500" height="300" style="overflow: hidden;" aria-label="A chart."><defs id="_ABSTRACT_RENDERER_ID_10"></defs><rect x="0" y="0" width="500" height="300" stroke="none" stroke-width="0" fill="#ffffff"></rect><g><text text-anchor="start" x="94" y="37.2" font-family="Arial" font-size="12" font-weight="bold" stroke="none" stroke-width="0" fill="#000000">Total: 118098</text><rect x="94" y="27" width="313" height="12" stroke="none" stroke-width="0" fill-opacity="0" fill="#ffffff"></rect></g><g><rect x="306" y="58" width="101" height="174" stroke="none" stroke-width="0" fill-opacity="0" fill="#ffffff"></rect><g column-id="fara_studii"><rect x="306" y="58" width="101" height="12" stroke="none" stroke-width="0" fill-opacity="0" fill="#ffffff"></rect><g><text text-anchor="start" x="323" y="68.2" font-family="Arial" font-size="12" stroke="none" stroke-width="0" fill="#222222">fara_studii</text></g><circle cx="312" cy="64" r="6" stroke="none" stroke-width="0" fill="#3366cc"></circle></g><g column-id="invatamant_primar"><rect x="306" y="77" width="101" height="28" stroke="none" stroke-width="0" fill-opacity="0" fill="#ffffff"></rect><g><text text-anchor="start" x="323" y="87.2" font-family="Arial" font-size="12" stroke="none" stroke-width="0" fill="#222222">invatamant_</text><text text-anchor="start" x="323" y="103.2" font-family="Arial" font-size="12" stroke="none" stroke-width="0" fill="#222222">primar</text></g><circle cx="312" cy="83" r="6" stroke="none" stroke-width="0" fill="#dc3912"></circle></g><g column-id="invatamant_gimnazial"><rect x="306" y="112" width="101" height="28" stroke="none" stroke-width="0" fill-opacity="0" fill="#ffffff"></rect><g><text text-anchor="start" x="323" y="122.2" font-family="Arial" font-size="12" stroke="none" stroke-width="0" fill="#222222">invatamant_</text><text text-anchor="start" x="323" y="138.2" font-family="Arial" font-size="12" stroke="none" stroke-width="0" fill="#222222">gimnazial</text></g><circle cx="312" cy="118" r="6" stroke="none" stroke-width="0" fill="#ff9900"></circle></g><g column-id="invatamant_liceal"><rect x="306" y="147" width="101" height="28" stroke="none" stroke-width="0" fill-opacity="0" fill="#ffffff"></rect><g><text text-anchor="start" x="323" y="157.2" font-family="Arial" font-size="12" stroke="none" stroke-width="0" fill="#222222">invatamant_</text><text text-anchor="start" x="323" y="173.2" font-family="Arial" font-size="12" stroke="none" stroke-width="0" fill="#222222">liceal</text></g><circle cx="312" cy="153" r="6" stroke="none" stroke-width="0" fill="#109618"></circle></g><g column-id="invatamant_posticeal"><rect x="306" y="182" width="101" height="12" stroke="none" stroke-width="0" fill-opacity="0" fill="#ffffff"></rect><g><text text-anchor="start" x="323" y="192.2" font-family="Arial" font-size="12" stroke="none" stroke-width="0" fill="#222222">invatamant_…</text><rect x="323" y="182" width="84" height="12" stroke="none" stroke-width="0" fill-opacity="0" fill="#ffffff"></rect></g><circle cx="312" cy="188" r="6" stroke="none" stroke-width="0" fill="#990099"></circle></g><g column-id="invatamant_profesional"><rect x="306" y="201" width="101" height="12" stroke="none" stroke-width="0" fill-opacity="0" fill="#ffffff"></rect><g><text text-anchor="start" x="323" y="211.2" font-family="Arial" font-size="12" stroke="none" stroke-width="0" fill="#222222">invatamant_…</text><rect x="323" y="201" width="84" height="12" stroke="none" stroke-width="0" fill-opacity="0" fill="#ffffff"></rect></g><circle cx="312" cy="207" r="6" stroke="none" stroke-width="0" fill="#0099c6"></circle></g><g column-id="invatamant_universitar"><rect x="306" y="220" width="101" height="12" stroke="none" stroke-width="0" fill-opacity="0" fill="#ffffff"></rect><g><text text-anchor="start" x="323" y="230.2" font-family="Arial" font-size="12" stroke="none" stroke-width="0" fill="#222222">invatamant_…</text><rect x="323" y="220" width="84" height="12" stroke="none" stroke-width="0" fill-opacity="0" fill="#ffffff"></rect></g><circle cx="312" cy="226" r="6" stroke="none" stroke-width="0" fill="#dd4477"></circle></g></g><g><path d="M191,151L191,59A92,92,0,0,1,241.86928880206682,74.34287080269756L191,151A0,0,0,0,0,191,151" stroke="#ffffff" stroke-width="1" fill="#3366cc"></path><text text-anchor="start" x="197.02786266872025" y="88.79762046590793" font-family="Arial" font-size="12" stroke="none" stroke-width="0" fill="#ffffff">9.3%</text></g><g><path d="M191,151L241.86928880206682,74.34287080269756A92,92,0,0,1,270.6498524252887,197.04238274274837L191,151A0,0,0,0,0,191,151" stroke="#ffffff" stroke-width="1" fill="#dc3912"></path><text text-anchor="start" x="243.1496713821528" y="140.0356855621111" font-family="Arial" font-size="12" stroke="none" stroke-width="0" fill="#ffffff">24%</text></g><g><path d="M191,151L174.0347647588791,60.57776383425684A92,92,0,0,1,191,59L191,151A0,0,0,0,0,191,151" stroke="#ffffff" stroke-width="1" fill="#dd4477"></path></g><g><path d="M191,151L107.1044029244617,113.24382446090533A92,92,0,0,1,174.0347647588791,60.57776383425684L191,151A0,0,0,0,0,191,151" stroke="#ffffff" stroke-width="1" fill="#0099c6"></path><text text-anchor="start" x="134.0282532156468" y="105.03755642478204" font-family="Arial" font-size="12" stroke="none" stroke-width="0" fill="#ffffff">15.3%</text></g><g><path d="M191,151L104.77736153266369,118.91173710324885A92,92,0,0,1,107.10440292446172,113.2438244609053L191,151A0,0,0,0,0,191,151" stroke="#ffffff" stroke-width="1" fill="#990099"></path></g><g><path d="M191,151L114.59141431784316,202.24185822208733A92,92,0,0,1,104.77736153266369,118.91173710324885L191,151A0,0,0,0,0,191,151" stroke="#ffffff" stroke-width="1" fill="#109618"></path><text text-anchor="start" x="112.10171880223731" y="162.4310704041196" font-family="Arial" font-size="12" stroke="none" stroke-width="0" fill="#ffffff">15.1%</text></g><g><path d="M191,151L270.6498524252887,197.04238274274837A92,92,0,0,1,114.59141431784316,202.24185822208733L191,151A0,0,0,0,0,191,151" stroke="#ffffff" stroke-width="1" fill="#ff9900"></path><text text-anchor="start" x="175.88186977101992" y="226.69007197317734" font-family="Arial" font-size="12" stroke="none" stroke-width="0" fill="#ffffff">32.3%</text></g><g></g></svg>